<?xml version="1.0" standalone="no"?>
<!DOCTYPE svg PUBLIC "-//W3C//DTD SVG 20010904//EN"
 "http://www.w3.org/TR/2001/REC-SVG-20010904/DTD/svg10.dtd">
<svg version="1.0" xmlns="http://www.w3.org/2000/svg"
 width="5120.000000pt" height="1440.000000pt" viewBox="0 0 5120.000000 1440.000000"
 preserveAspectRatio="xMidYMid meet">

<g transform="translate(0.000000,1440.000000) scale(0.100000,-0.100000)"
fill="#00FF00" stroke="none">
<path d="M25520 11743 c-14 -2 -128 -20 -255 -39 -126 -19 -365 -57 -530 -85
-504 -83 -882 -137 -1157 -165 -145 -14 -273 -28 -286 -30 -18 -4 -32 -25 -64
-92 -82 -176 -202 -451 -304 -696 -58 -138 -122 -291 -143 -341 -39 -91 -171
-423 -254 -635 -39 -99 -360 -952 -452 -1200 -48 -130 -235 -621 -320 -845
-42 -110 -84 -220 -92 -245 -16 -46 -41 -84 -29 -45 21 74 161 980 232 1500 7
55 34 233 59 395 127 815 193 1277 234 1625 37 310 63 566 59 570 -7 7 -850
-76 -1213 -120 -418 -50 -734 -73 -1160 -83 l-279 -7 -43 -165 c-163 -625
-398 -1438 -670 -2320 -121 -392 -351 -1141 -454 -1480 -28 -91 -64 -205 -79
-255 -16 -49 -47 -148 -69 -220 -38 -127 -57 -186 -200 -646 -39 -124 -100
-322 -135 -440 -35 -118 -130 -430 -211 -694 -81 -264 -152 -496 -157 -515
-15 -53 -25 -57 -37 -14 -19 72 -239 968 -275 1119 -107 452 -203 939 -261
1328 l-24 169 101 211 c587 1232 776 1602 1225 2407 188 338 206 372 351 645
187 356 252 489 242 495 -6 3 -74 23 -153 44 -129 35 -485 132 -1202 327 -143
39 -314 86 -380 104 l-120 33 -122 -246 c-123 -249 -389 -812 -470 -997 -148
-336 -269 -701 -330 -995 l-9 -45 -7 75 c-4 41 -14 174 -23 295 -20 284 -44
527 -93 960 -22 193 -58 509 -81 704 -22 195 -42 356 -44 358 -2 3 -89 -29
-193 -70 -103 -42 -297 -118 -430 -171 -134 -53 -352 -139 -485 -192 -785
-311 -921 -364 -944 -370 -22 -6 -24 -4 -19 17 24 107 133 735 127 740 -4 3
-113 -11 -242 -32 -298 -47 -878 -138 -1170 -184 -464 -71 -613 -95 -615 -97
-2 -2 -10 -50 -20 -108 -62 -388 -305 -1734 -333 -1855 -8 -32 -10 -11 -11
102 -6 832 -194 1413 -583 1802 -273 274 -613 435 -1044 497 -158 22 -543 22
-739 0 -323 -37 -810 -134 -1220 -241 -221 -58 -465 -131 -475 -142 -4 -4 -17
-73 -29 -153 -12 -80 -33 -215 -46 -301 -13 -85 -33 -205 -44 -265 -11 -60
-41 -224 -66 -364 -25 -140 -59 -322 -75 -405 -16 -82 -43 -224 -60 -315 -17
-91 -44 -232 -60 -315 -16 -82 -50 -260 -75 -395 -25 -135 -54 -288 -65 -340
-10 -52 -44 -225 -75 -385 -125 -646 -367 -1841 -515 -2545 -23 -107 -70 -334
-105 -505 -35 -170 -82 -398 -105 -505 -61 -290 -98 -471 -125 -605 -14 -66
-47 -230 -75 -365 -109 -529 -131 -642 -126 -647 5 -5 225 33 726 127 150 29
263 50 670 125 107 20 276 51 375 69 99 19 237 44 307 57 70 12 132 25 137 29
6 3 20 69 31 145 11 77 52 329 89 560 38 231 86 524 106 650 69 431 169 978
220 1202 l16 71 97 6 c417 26 726 109 1052 283 629 336 1132 868 1486 1573 83
165 93 188 165 375 21 55 38 97 39 93 0 -4 -22 -119 -50 -255 -27 -137 -97
-491 -155 -788 -180 -913 -231 -1167 -340 -1670 -40 -185 -255 -1154 -315
-1420 -60 -267 -167 -742 -200 -890 -16 -71 -38 -168 -49 -215 -12 -47 -21
-91 -21 -99 0 -18 29 -15 570 54 546 70 996 121 1180 134 80 6 178 13 218 16
39 3 72 3 72 0 0 -3 -11 -28 -25 -56 -19 -36 -22 -50 -13 -53 7 -3 128 -14
268 -26 257 -21 546 -46 1377 -120 489 -43 513 -45 513 -31 0 12 228 504 348
751 49 102 136 291 192 420 56 129 127 291 157 360 31 69 72 168 93 220 20 52
41 104 45 115 6 15 9 16 11 5 6 -24 52 -695 74 -1065 24 -412 59 -865 66 -865
21 0 344 81 463 117 86 25 208 61 271 80 385 114 1061 305 1065 301 1 -2 -13
-50 -31 -108 -19 -58 -41 -126 -49 -153 l-14 -47 47 0 c26 0 180 9 342 20 162
10 410 26 550 35 881 55 1174 75 1181 82 8 10 115 352 167 538 11 39 49 171
85 295 231 792 415 1450 585 2085 126 468 242 912 248 942 21 114 9 -46 -86
-1142 -16 -192 -46 -534 -65 -760 -20 -225 -51 -590 -70 -810 -88 -1014 -108
-1265 -102 -1271 7 -7 302 6 732 31 132 8 373 19 535 25 162 6 298 14 301 18
4 4 21 56 39 116 42 143 299 919 383 1157 76 215 221 605 332 894 129 335 367
967 450 1197 43 120 81 216 83 214 2 -2 -13 -127 -32 -277 -20 -151 -54 -431
-76 -624 -22 -192 -54 -465 -70 -605 -17 -140 -41 -363 -55 -495 -13 -132 -27
-262 -30 -290 -17 -160 -76 -989 -82 -1142 l-6 -183 25 0 c14 0 308 48 654
106 1166 195 1355 226 1359 222 2 -2 -16 -76 -41 -163 -63 -227 -61 -215 -33
-215 68 0 673 68 1619 181 407 48 543 67 551 77 3 4 18 50 32 102 24 90 138
501 212 765 18 66 63 228 100 360 36 132 79 283 94 335 l27 95 403 3 404 2 -7
-37 c-10 -62 -34 -282 -76 -718 -23 -225 -49 -480 -60 -565 -28 -232 -65 -639
-58 -645 10 -10 530 62 944 130 216 36 501 79 635 95 238 30 558 76 590 86 20
5 21 23 49 804 11 300 29 770 40 1045 11 275 26 705 35 955 16 473 67 1573
115 2470 5 102 17 327 25 500 24 490 73 1301 100 1670 14 184 32 434 40 555 9
121 20 270 25 330 6 61 10 127 10 149 l0 39 -42 -7 c-656 -107 -1377 -201
-1883 -246 -66 -6 -214 -20 -330 -31 -115 -11 -423 -37 -683 -58 -350 -28
-476 -41 -482 -51 -5 -8 -23 -68 -40 -134 -69 -263 -235 -841 -420 -1461 -40
-132 -77 -256 -82 -275 -9 -31 -75 -253 -173 -580 -76 -254 -244 -817 -253
-850 -5 -19 -56 -188 -112 -375 -56 -187 -119 -398 -140 -470 -126 -429 -334
-1128 -365 -1230 -42 -138 -111 -369 -130 -435 -7 -25 -36 -124 -65 -220 -63
-212 -86 -290 -183 -625 -42 -143 -80 -271 -86 -285 -13 -29 -14 -43 29 450
108 1233 179 1959 291 2960 28 245 65 583 84 751 48 428 129 1078 170 1374 65
456 125 871 185 1275 22 151 52 354 65 450 14 96 28 187 31 203 5 26 4 27 -33
26 -21 -1 -49 -4 -63 -6z m-11726 -1313 c39 -230 118 -634 161 -825 222 -976
282 -1304 421 -2290 l25 -181 -134 -289 c-309 -664 -561 -1151 -952 -1840
-219 -385 -466 -835 -657 -1200 -269 -510 -320 -604 -314 -580 3 11 19 94 35
185 45 245 84 452 145 770 69 360 147 774 231 1235 135 737 229 1239 280 1490
14 66 59 296 101 510 41 215 127 647 189 960 63 314 139 701 170 860 31 160
69 358 85 440 16 83 47 249 70 370 22 121 54 290 70 375 17 86 30 164 30 175
0 11 3 15 8 10 5 -6 21 -84 36 -175z m-4457 -551 c55 -35 178 -174 215 -246
81 -153 108 -346 89 -634 -16 -255 -50 -436 -123 -659 -111 -342 -291 -645
-510 -857 -97 -95 -263 -233 -266 -223 -2 5 13 83 33 172 59 262 71 321 119
563 49 252 96 504 150 805 20 107 58 321 86 475 29 154 65 357 81 450 16 94
32 176 34 182 5 15 40 4 92 -28z m18877 -574 c-13 -171 -38 -447 -54 -615 -16
-168 -46 -489 -65 -715 -19 -225 -44 -507 -55 -625 -12 -118 -34 -372 -50
-565 -28 -326 -58 -637 -63 -642 -5 -4 -592 -30 -597 -26 -5 5 13 76 586 2332
153 603 310 1178 319 1169 2 -2 -7 -143 -21 -313z"/>
<path d="M42965 11504 c-107 -12 -291 -47 -386 -74 -624 -177 -1299 -687
-1861 -1410 -518 -665 -978 -1551 -1252 -2410 -86 -271 -175 -609 -216 -825
-6 -33 -14 -68 -16 -77 -5 -17 -30 -18 -335 -18 -310 0 -330 1 -325 18 19 65
38 158 61 292 25 151 53 303 135 722 43 224 80 439 134 783 36 229 80 470 141
785 96 490 145 797 145 913 0 32 -3 37 -22 37 -13 0 -221 -20 -463 -45 -525
-54 -1706 -209 -1719 -226 -1 -2 -10 -44 -19 -94 -10 -49 -35 -182 -57 -295
-68 -358 -174 -944 -200 -1110 -7 -41 -27 -142 -45 -225 -19 -82 -62 -298 -95
-480 -128 -697 -197 -1052 -206 -1066 -6 -11 -574 -12 -574 -1 0 38 41 199 96
374 333 1075 775 2401 1243 3738 143 409 194 566 185 568 -8 2 -85 -6 -171
-17 -593 -77 -1073 -111 -1598 -111 -143 0 -265 -4 -271 -8 -14 -9 -115 -294
-218 -617 -42 -132 -85 -265 -96 -295 -10 -30 -116 -352 -235 -715 -285 -870
-558 -1700 -809 -2455 -304 -916 -516 -1564 -516 -1580 0 -13 387 -821 505
-1055 l50 -100 45 3 c25 2 275 21 555 43 649 50 1144 88 1263 96 l93 6 -5 -34
c-20 -118 -226 -1812 -221 -1817 6 -7 54 1 770 118 297 49 680 112 850 140
607 99 729 121 737 133 4 7 8 24 8 38 0 51 87 1320 96 1406 l5 53 287 2 287 3
77 320 c43 176 91 374 107 440 195 809 275 1132 283 1145 6 10 7 4 3 -20 -67
-390 -89 -659 -89 -1085 -1 -388 7 -497 56 -780 107 -628 385 -1159 768 -1468
349 -282 763 -417 1277 -417 341 0 651 57 943 172 355 141 748 407 1063 721
529 527 947 1238 1292 2196 433 1203 579 2609 389 3746 -62 371 -157 682 -293
955 -118 235 -226 385 -402 555 -219 211 -430 326 -707 386 -75 16 -142 21
-292 24 -107 1 -213 1 -235 -1z m-130 -2659 c84 -18 194 -70 253 -120 140
-120 250 -379 288 -677 13 -106 16 -180 11 -363 -20 -832 -361 -1725 -866
-2270 -318 -343 -627 -496 -974 -483 -91 3 -110 7 -168 35 -140 69 -227 216
-274 463 -26 134 -31 460 -11 660 36 345 112 675 250 1075 305 889 762 1530
1187 1664 110 34 195 39 304 16z"/>
<path d="M34230 11353 c-30 -5 -274 -43 -535 -83 -104 -16 -291 -45 -415 -64
-124 -19 -371 -58 -550 -86 -179 -28 -545 -84 -815 -125 -269 -41 -553 -89
-630 -105 -77 -16 -216 -46 -310 -65 -289 -60 -410 -87 -417 -94 -7 -7 -62
-375 -103 -696 -14 -110 -48 -344 -75 -520 -49 -317 -103 -725 -115 -860 -3
-38 -8 -90 -11 -114 l-6 -44 69 7 c242 23 402 46 841 119 272 45 495 80 497
77 4 -6 -583 -2938 -713 -3565 -22 -104 -88 -422 -147 -705 -151 -726 -333
-1634 -329 -1641 4 -8 356 45 599 90 115 22 309 58 430 81 473 88 1234 275
1254 309 4 6 15 62 25 123 30 197 96 609 116 733 11 66 62 383 115 705 147
906 228 1386 310 1825 103 553 148 785 239 1240 131 653 201 991 366 1770 132
621 161 759 285 1345 36 173 68 323 71 333 5 17 2 18 -46 10z"/>
</g>
</svg>
